<?xml version="1.0" standalone="no"?>
<!DOCTYPE svg PUBLIC "-//W3C//DTD SVG 20010904//EN"
 "http://www.w3.org/TR/2001/REC-SVG-20010904/DTD/svg10.dtd">
<svg version="1.0" xmlns="http://www.w3.org/2000/svg"
 width="282.000000pt" height="282.000000pt" viewBox="0 0 282.000000 282.000000"
 preserveAspectRatio="xMidYMid meet">

<g transform="translate(0.000000,282.000000) scale(0.100000,-0.100000)"
fill="#000000" stroke="none">
<path d="M1310 2769 c-25 -5 -81 -17 -125 -25 -399 -75 -750 -340 -949 -715
-87 -163 -156 -416 -156 -570 l0 -69 73 -1 c195 -3 441 -9 443 -11 2 -2 178
-178 393 -392 l389 -388 256 255 c141 140 256 260 256 266 0 11 -136 145 -525
520 -99 96 -182 178 -184 183 -4 11 68 88 83 88 6 0 69 -58 141 -128 144 -141
465 -447 562 -535 l63 -57 218 0 c120 0 221 -3 224 -6 7 -6 -31 -103 -74 -189
-151 -297 -447 -538 -753 -610 -97 -23 -265 -30 -366 -16 -283 41 -566 214
-744 456 -54 72 -121 185 -144 242 -7 18 -19 33 -26 33 -7 0 -43 -13 -81 -28
-38 -16 -81 -32 -97 -36 -40 -10 -36 -49 18 -162 197 -420 560 -692 1035 -775
232 -41 501 1 748 118 321 151 596 456 717 793 39 110 75 293 75 385 l0 80
-62 1 c-35 0 -182 1 -328 3 l-265 2 -106 102 c-337 324 -750 712 -757 712 -5
0 -118 -106 -252 -235 l-242 -235 129 -125 c71 -69 233 -226 361 -349 128
-124 232 -230 232 -236 0 -6 -25 -35 -55 -65 l-55 -54 -247 244 c-137 135
-251 250 -255 256 -4 5 -48 47 -97 93 l-91 83 -150 0 c-182 0 -176 -9 -91 163
153 311 387 519 694 619 162 53 389 60 552 17 95 -26 275 -111 364 -174 150
-106 304 -287 386 -455 22 -45 42 -82 45 -82 3 0 50 17 105 38 116 44 120 51
84 140 -91 226 -291 469 -498 606 -130 86 -314 165 -456 195 -27 6 -72 15 -99
21 -69 15 -263 21 -316 9z"/>
</g>
</svg>
